# Blender v3.0.1 OBJ File: 'InfoBoard.blend'
# www.blender.org
mtllib InfoBoard.mtl
o BoardStand_Cube
v -0.749786 1.666797 -0.031535
v -0.749786 -0.001922 -0.264168
v -0.749786 1.644803 0.127010
v -0.749786 0.000000 -0.105623
v -0.910136 1.666797 -0.031535
v -0.910136 -0.001922 -0.264168
v -0.910136 1.644803 0.127010
v -0.910136 0.000000 -0.105623
v -0.749786 1.508385 -0.053511
v -0.910136 1.486391 0.105034
v -0.749786 1.486391 0.105034
v -0.910136 1.508385 -0.053511
v -0.749786 0.358026 -0.213094
v -0.749786 0.336032 -0.054549
v -0.910136 0.358026 -0.213094
v -0.910136 0.336032 -0.054549
v -0.910136 0.494811 -0.032522
v -0.749786 0.516805 -0.191067
v -0.749786 0.494811 -0.032522
v -0.910136 0.516805 -0.191067
v -1.810153 1.486391 0.105034
v -1.810153 1.644803 0.127010
v -1.810153 1.666797 -0.031535
v -1.810153 1.508385 -0.053511
v -1.810153 0.516805 -0.191067
v -1.810153 0.358026 -0.213094
v -1.810153 0.336032 -0.054549
v -1.810153 0.494811 -0.032522
v -1.970365 1.486391 0.105034
v -1.970365 1.644803 0.127010
v -1.970365 1.666797 -0.031535
v -1.970365 1.508385 -0.053511
v -1.970365 0.516805 -0.191067
v -1.970365 0.358026 -0.213094
v -1.970365 0.336032 -0.054549
v -1.970365 0.494811 -0.032522
v -1.810153 0.000000 -0.105090
v -1.810153 0.000000 -0.263635
v -1.970365 0.000000 -0.105090
v -1.970365 0.000000 -0.263635
v -0.910136 1.464017 0.266318
v -0.910136 1.622429 0.288293
v -0.749786 1.622429 0.288293
v -0.749786 1.464017 0.266318
v -1.810153 1.464017 0.266318
v -1.810153 1.622429 0.288293
v -1.970365 1.464017 0.266318
v -1.970365 1.622429 0.288293
v -0.749786 0.000000 0.211044
v -0.910136 0.000000 0.211044
v -1.810153 0.000000 0.211044
v -1.970365 0.000000 0.211044
v -0.749786 0.000000 0.372328
v -0.910136 0.000000 0.372328
v -1.810153 0.000000 0.372328
v -1.970365 0.000000 0.372328
vt 0.014924 0.739918
vt 0.014924 0.701540
vt 0.053234 0.701540
vt 0.053234 0.739918
vt 0.748333 0.058201
vt 0.786918 0.063673
vt 0.811232 0.414148
vt 0.772631 0.414031
vt 0.053303 0.417934
vt 0.053303 0.379679
vt 0.268714 0.379679
vt 0.268714 0.417934
vt 0.258761 0.867234
vt 0.258761 0.828855
vt 0.296619 0.828855
vt 0.296619 0.867234
vt 0.710402 0.052823
vt 0.715776 0.014925
vt 0.753707 0.020303
vt 0.014925 0.417934
vt 0.014925 0.379679
vt 0.053303 0.140221
vt 0.014925 0.140221
vt 0.676763 0.290048
vt 0.714693 0.295427
vt 0.909276 0.254523
vt 0.909276 0.014925
vt 0.947585 0.014925
vt 0.947585 0.254523
vt 0.629043 0.548450
vt 0.629043 0.787920
vt 0.590665 0.787920
vt 0.590665 0.548450
vt 0.629043 0.428840
vt 0.629043 0.510105
vt 0.590665 0.510105
vt 0.590665 0.428840
vt 0.337712 0.899115
vt 0.336908 0.817769
vt 0.375218 0.817888
vt 0.375218 0.904901
vt 0.658892 0.414148
vt 0.671376 0.328035
vt 0.709307 0.333413
vt 0.696840 0.413802
vt 0.053303 0.014925
vt 0.053303 0.101877
vt 0.014925 0.101877
vt 0.014925 0.014925
vt 0.375254 0.548450
vt 0.375254 0.510105
vt 0.053234 0.486128
vt 0.014925 0.486128
vt 0.014925 0.447783
vt 0.053234 0.447783
vt 0.336908 0.787920
vt 0.336908 0.548450
vt 0.375254 0.787920
vt 0.917041 0.928856
vt 0.878731 0.928856
vt 0.878731 0.713445
vt 0.917041 0.713445
vt 0.268714 0.101877
vt 0.268714 0.140221
vt 0.771851 0.443997
vt 0.810037 0.443997
vt 0.810037 0.659408
vt 0.771851 0.659408
vt 0.946890 0.443997
vt 0.985075 0.443997
vt 0.985075 0.659408
vt 0.946890 0.659408
vt 0.375254 0.360735
vt 0.590665 0.360735
vt 0.590665 0.398991
vt 0.375254 0.398991
vt 0.696515 0.802584
vt 0.703729 0.840176
vt 0.666106 0.847396
vt 0.658892 0.809804
vt 0.014925 0.808133
vt 0.014988 0.769767
vt 0.053298 0.769830
vt 0.053234 0.808197
vt 0.336908 0.510105
vt 0.307059 0.101877
vt 0.307059 0.140221
vt 0.307059 0.379679
vt 0.307059 0.417934
vt 0.092206 0.701540
vt 0.092206 0.739918
vt 0.810161 0.928856
vt 0.771851 0.928856
vt 0.771851 0.689257
vt 0.810161 0.689257
vt 0.053298 0.894737
vt 0.015720 0.889460
vt 0.122055 0.837037
vt 0.159939 0.837037
vt 0.159939 0.875382
vt 0.122055 0.875382
vt 0.268714 0.015395
vt 0.307059 0.015395
vt 0.336908 0.428854
vt 0.375254 0.428854
vt 0.443376 0.904309
vt 0.405067 0.904401
vt 0.405803 0.823073
vt 0.443376 0.817769
vt 0.917041 0.683595
vt 0.878731 0.683595
vt 0.878731 0.443997
vt 0.917041 0.443997
vt 0.629043 0.360735
vt 0.629043 0.398991
vt 0.336908 0.398991
vt 0.336908 0.360735
vt 0.092206 0.486128
vt 0.848882 0.659408
vt 0.848882 0.443997
vt 0.792292 0.025775
vt 0.092206 0.447783
vt 0.734788 0.795240
vt 0.742002 0.832831
vt 0.297139 0.799006
vt 0.258761 0.799006
vt 0.258761 0.447783
vt 0.297139 0.447783
vt 0.579798 0.856307
vt 0.541453 0.856307
vt 0.541453 0.817769
vt 0.579798 0.817769
vt 0.511604 0.856307
vt 0.473226 0.856307
vt 0.473226 0.817769
vt 0.511604 0.817769
vt 0.590665 0.014925
vt 0.629043 0.014925
vt 0.160559 0.807188
vt 0.122436 0.799100
vt 0.122055 0.447783
vt 0.160559 0.450529
vt 0.336908 0.014925
vt 0.375254 0.014925
vt 0.190789 0.455871
vt 0.228912 0.447783
vt 0.228912 0.804441
vt 0.190408 0.807188
vt 0.879427 0.366147
vt 0.841081 0.366147
vt 0.841081 0.014925
vt 0.879427 0.014925
vt 0.703452 0.445993
vt 0.742002 0.443997
vn 0.0000 0.9905 0.1374
vn 1.0000 0.0000 0.0000
vn 0.0000 0.1374 -0.9905
vn 0.0000 -0.9999 0.0121
vn -1.0000 0.0000 0.0000
vn 0.0000 -0.1374 0.9905
vn 0.0000 -0.1503 0.9886
vn 0.0000 0.1405 -0.9901
vn 0.0000 -0.9905 -0.1374
vn 0.0000 -1.0000 0.0000
vn 0.0000 0.1398 -0.9902
vn 0.0000 -0.1487 0.9889
vn 0.0000 -0.0711 -0.9975
vn 0.0000 0.0722 0.9974
usemtl WoodMaterial
s off
f 1/1/1 5/2/1 7/3/1 3/4/1
f 11/5/2 44/6/2 53/7/2 49/8/2
f 5/9/3 12/10/3 24/11/3 23/12/3
f 6/13/4 2/14/4 4/15/4 8/16/4
f 9/17/2 1/18/2 3/19/2 11/5/2
f 12/10/3 5/9/3 1/20/3 9/21/3
f 20/22/3 12/10/3 9/21/3 18/23/3
f 18/24/2 9/17/2 11/5/2 19/25/2
f 17/26/5 10/27/5 12/28/5 20/29/5
f 19/30/6 11/31/6 10/32/6 17/33/6
f 4/34/7 14/35/7 16/36/7 8/37/7
f 8/38/5 16/39/5 15/40/5 6/41/5
f 2/42/2 13/43/2 14/44/2 4/45/2
f 6/46/8 15/47/8 13/48/8 2/49/8
f 14/35/6 19/30/6 17/33/6 16/36/6
f 16/36/6 17/33/6 28/50/6 27/51/6
f 13/43/2 18/24/2 19/25/2 14/44/2
f 15/47/3 20/22/3 18/23/3 13/48/3
f 22/52/1 23/53/1 31/54/1 30/55/1
f 29/56/6 36/57/6 28/50/6 21/58/6
f 17/59/1 20/60/1 25/61/1 28/62/1
f 20/22/3 15/47/3 26/63/3 25/64/3
f 7/3/1 5/2/1 23/53/1 22/52/1
f 12/65/9 10/66/9 21/67/9 24/68/9
f 15/69/9 16/70/9 27/71/9 26/72/9
f 45/73/6 41/74/6 42/75/6 46/76/6
f 29/77/5 30/78/5 31/79/5 32/80/5
f 35/81/5 36/82/5 33/83/5 34/84/5
f 27/51/6 28/50/6 36/57/6 35/85/6
f 25/64/3 26/63/3 34/86/3 33/87/3
f 23/12/3 24/11/3 32/88/3 31/89/3
f 3/4/1 7/3/1 42/90/1 43/91/1
f 24/92/2 21/93/2 28/94/2 25/95/2
f 35/81/5 34/84/5 40/96/5 39/97/5
f 38/98/10 37/99/10 39/100/10 40/101/10
f 34/86/11 26/63/11 38/102/11 40/103/11
f 27/51/12 35/85/12 39/104/12 37/105/12
f 26/106/2 27/107/2 37/108/2 38/109/2
f 33/87/3 32/88/3 24/11/3 25/64/3
f 32/110/2 29/111/2 36/112/2 33/113/2
f 44/114/6 43/115/6 42/75/6 41/74/6
f 45/73/6 46/76/6 48/116/6 47/117/6
f 42/90/1 7/3/1 22/52/1 46/118/1
f 45/119/9 21/67/9 10/66/9 41/120/9
f 11/5/2 3/19/2 43/121/2 44/6/2
f 22/52/1 30/55/1 48/122/1 46/118/1
f 30/78/5 29/77/5 47/123/5 48/124/5
f 10/125/13 11/126/13 49/127/13 50/128/13
f 52/129/10 51/130/10 55/131/10 56/132/10
f 50/133/10 49/134/10 53/135/10 54/136/10
f 44/114/14 41/74/14 54/137/14 53/138/14
f 21/139/2 45/140/2 55/141/2 51/142/2
f 45/73/14 47/117/14 56/143/14 55/144/14
f 41/145/5 10/146/5 50/147/5 54/148/5
f 29/149/13 21/150/13 51/151/13 52/152/13
f 47/123/5 29/77/5 52/153/5 56/154/5
